<?xml version="1.0" encoding="UTF-8"?>
<svg id="Capa_1" data-name="Capa 1" xmlns="http://www.w3.org/2000/svg" viewBox="0 0 479.03 404.02">
  <path d="m240.09,257.94c-2.94,4.38-5.74,8.88-8.87,13.14-10.53,14.3-23.47,25.76-39.93,32.83-17.64,7.58-35.65,7.14-53.43.94-27.76-9.68-45.92-28.98-54.84-56.94-1.23-3.86-1.87-7.93-2.45-11.95-.37-2.51-1.22-3.6-3.94-3.99-29.69-4.27-52.24-19.35-66.26-45.9-13.24-25.1-13.76-51.14-1.8-76.89,11.51-24.77,30.97-40.82,57.4-47.5,25.78-6.51,49.87-1.69,71.77,13.54.98.68,1.99,1.35,3.02,2.04,2.43-5.95,4.38-11.74,7.08-17.16,15.76-31.62,40.82-51.61,75.64-58.18,48.1-9.08,93.91,14.48,115.22,58.59,1.96,4.06,3.48,8.36,4.98,12.62.65,1.86,1.12,2.7,3.29,1.69,45.24-21.28,95.36,1.34,119.19,37.66,23.27,35.46,12.89,85.92-14.29,109.85-9.81,8.64-21.09,14.32-33.8,17.34-1.21.29-2.82,1.63-3.1,2.77-4.31,17.82-14.84,31.43-29.06,42.28-20.57,15.7-43.81,24.38-69.87,24.56-18.18.12-33.63-7.19-47.54-18.28-10.83-8.64-19.59-19.1-26.58-31.05-.34-.58-.73-1.14-1.14-1.67-.12-.16-.39-.2-.69-.34Z"/>
  <path d="m267.12,375.93c.18,14.64-5.06,22.91-14.08,26.56-8.13,3.29-17.74,1.17-24.07-5.36-4.59-4.74-6.7-10.55-6.25-17.04,1.34-19.56,8.2-37.21,19.12-53.36,2.32-3.44,3.65-3.45,6.21-.21,6.62,8.39,10.77,18.11,13.95,28.14,2.62,8.25,4.09,16.86,5.12,21.26Z"/>
  <path d="m105.25,360.68c1.14-12.34,5.68-24.98,13.38-36.46,2.29-3.41,3.59-3.32,5.93.3,7.32,11.3,11.84,23.63,12.92,37.08.78,9.74-6.5,17.76-15.83,17.86-9.48.1-16.67-7.48-16.4-18.77Z"/>
  <path d="m364.09,382.21c.25,12-6.72,19.56-15.98,19.6-9.3.04-16.58-7.42-16.1-17.23.7-14.01,5.66-26.67,13.44-38.24,2.18-3.24,3.2-3.23,5.44.09,7.74,11.48,12.05,24.2,13.19,35.77Z"/>
  <path d="m431,258.79c1.5,2.38,2.86,4.28,3.94,6.32,3.41,6.46,5.73,13.27,5.95,20.66.18,5.97-4.33,10.76-10.15,10.9-5.76.14-10.55-4.18-10.57-10.06-.03-9.58,3.43-18.09,8.74-25.92.36-.53.97-.89,2.09-1.9Z"/>
  <path d="m416.07,318.83c.07,8.34-4.58,13.19-10.93,12.84-6.39-.36-10.55-5.63-9.85-12.49.82-8.14,3.66-15.58,8.01-22.44,1.9-3.01,2.96-2.98,4.85,0,4.56,7.18,7.17,15.03,7.92,22.1Z"/>
  <path d="m195.76,341.5c.18,7.89-4.47,12.98-10.51,12.79-6.34-.2-10.67-5.16-10.25-11.81.55-8.56,3.66-16.26,8.17-23.42,1.68-2.67,2.75-2.7,4.45-.07,4.69,7.22,7.47,15.15,8.13,22.51Z"/>
</svg>