<?xml version="1.0" encoding="UTF-8"?>
<svg id="Capa_1" data-name="Capa 1" xmlns="http://www.w3.org/2000/svg" viewBox="0 0 491.73 430.15">
  <path d="m246,264.87c-9.46,16.5-21.48,30.42-37.94,41-2.99-7.09-9.11-7.09-15.28-7.45-15.09-.87-30.17-1.98-45.25-3.02-.89-.06-1.77-.3-3.29-.56,3.05-3.96,5.78-7.53,8.54-11.08,10.93-14.03,21.88-28.05,32.8-42.09,2.44-3.14,3.38-6.58,1.77-10.44-1.46-3.51-4.01-5.83-7.82-6.12-16.7-1.25-33.4-2.4-50.12-3.47-3.96-.25-6.76,1.94-8.95,5.12-8.77,12.73-17.59,25.43-26.39,38.15-.9,1.31-1.81,2.62-3.27,4.73-1.42-3.22-2.81-5.62-3.55-8.21-1.81-6.36-3.49-12.76-4.85-19.22-.51-2.46-1.3-3.48-3.87-3.83-27.66-3.72-49.21-17.35-64.55-40.61C-13.03,156.8.39,98.47,43.04,73.82c33-19.07,65.83-17.56,97.69,3.44.97.64,1.91,1.31,2.89,1.93.16.1.44.01.94.01.25-.6.61-1.29.85-2.02C158.8,37.37,185.77,11.81,226.73,2.62c44.04-9.88,88.72,8.77,113.24,46.78,5.11,7.92,8.52,16.97,12.43,25.63.98,2.18,1.49,2.96,3.91,1.83,51.18-23.82,109.56,6.88,128.94,52.24,8.73,20.43,8.02,41.28,1.62,62.12-6.34,20.64-18.43,36.99-37.68,47.25-6.28,3.35-13.4,5.1-20.08,7.75-1.3.52-3.06,1.61-3.34,2.75-4.62,19.05-16.08,33.36-31.41,44.74-20.32,15.08-43.17,23.44-68.63,24.04-19.47.46-35.97-7.19-50.8-19.08-10.82-8.68-19.51-19.23-26.6-31.12-.42-.7-.84-1.39-1.3-2.05-.12-.17-.38-.24-1.02-.61Z"/>
  <path d="m63.73,324.13c3.95-5.8,7.3-10.79,10.71-15.73,16.91-24.47,33.88-48.91,50.69-73.45,1.82-2.66,3.7-3.55,6.87-3.3,13.43,1.1,26.89,1.96,40.34,2.91,1.02.07,2.04.21,4.12.43-17.97,23.05-35.49,45.53-53.61,68.78,24.97,1.72,48.98,3.38,73.89,5.1-25.72,40.51-50.96,80.25-76.21,120-.26-.14-.52-.27-.78-.41,14.81-32.29,29.63-64.59,44.77-97.58-33.65-2.26-66.72-4.47-100.79-6.76Z"/>
  <path d="m216.1,373.25c.99-17.53,6.53-32.73,14.14-47.27,1.82-3.49,3.96-6.84,6.26-10.04,2.82-3.91,4.2-3.95,6.99.12,2.88,4.2,5.58,8.59,7.8,13.17,6.92,14.22,11.97,29.04,12.18,45.06.16,11.97-8.82,22.15-20.46,23.66-11.85,1.54-22.9-5.74-26-17.36-.71-2.66-.7-5.5-.92-7.35Z"/>
  <path d="m282.99,413.14c1.15-15.66,6.11-28.43,13.62-40.28,2.74-4.32,4.08-4.29,6.92.09,7.52,11.61,12.1,24.32,13.3,38.12.79,9.11-4.51,16.44-12.97,18.58-7.61,1.93-15.8-1.86-19.07-9.23-1.19-2.68-1.45-5.77-1.81-7.28Z"/>
  <path d="m354.62,327.6c1.2,1.39,2.4,2.48,3.24,3.79,6.79,10.53,10.95,22.04,12.21,34.51.84,8.31-3.18,15.01-10.16,17.62-6.69,2.5-14.24.41-18.17-5.7-1.67-2.6-2.91-6.03-2.87-9.07.15-14.27,5.47-26.93,13.21-38.68.55-.83,1.46-1.43,2.54-2.46Z"/>
  <path d="m440.48,327.63c.13,9.35-5.46,15.52-12.8,15.76-7.86.25-14.31-5.56-14.08-13.57.35-12.14,4.76-23.06,11.47-33.07,1.53-2.28,2.99-1.59,4.3.34,6.58,9.72,10.21,20.47,11.11,30.54Z"/>
</svg>